<?xml version="1.0" encoding="UTF-8" standalone="no"?>
<!-- Created with Inkscape (http://www.inkscape.org/) -->

<svg
   xmlns:svg="http://www.w3.org/2000/svg"
   xmlns="http://www.w3.org/2000/svg"
   version="1.2"
   width="578.21631"
   height="410.82681"
   id="svg2998">
  <defs
     id="defs3000" />
  <g
     transform="translate(0,-641.53537)"
     id="layer1">
    <g
       transform="translate(-84.439732,437.54351)"
       id="g4481">
      <path
         d="m 114.71875,206.65625 0,361.40625 0,1 1,0 544.28125,0 0,-2 -543.28125,0 0,-360.40625 -2,0 z"
         id="path2816"
         style="font-size:medium;font-style:normal;font-variant:normal;font-weight:normal;font-stretch:normal;text-indent:0;text-align:start;text-decoration:none;line-height:normal;letter-spacing:normal;word-spacing:normal;text-transform:none;direction:ltr;block-progression:tb;writing-mode:lr-tb;text-anchor:start;color:#000000;fill:#000000;fill-opacity:1;stroke:none;stroke-width:2;marker:none;visibility:visible;display:inline;overflow:visible;enable-background:accumulate;font-family:Bitstream Vera Sans;-inkscape-font-specification:Bitstream Vera Sans" />
      <path
         d="m 106.84007,228.02879 8.83899,-24.03693 8.83899,24.03693 c -5.21854,-3.84009 -12.3584,-3.81797 -17.67798,0 z"
         id="path4487"
         style="font-size:12px;fill-rule:evenodd;stroke-width:0.625;stroke-linejoin:round" />
      <path
         d="m 638.61911,559.20225 24.03693,8.83899 -24.03693,8.83899 c 3.84009,-5.21854 3.81797,-12.3584 0,-17.67798 z"
         id="path4489"
         style="font-size:12px;fill-rule:evenodd;stroke-width:0.625;stroke-linejoin:round" />
    </g>
    <path
       d="m 528.37277,854.76226 0,0.0312 -0.0312,0 -1.84375,5.25 -0.0312,0 -1.9375,5.625 1.90625,0.65625 1.9375,-5.625 1.875,-5.21875 1.5625,-4.1875 -1.84375,-0.71875 z m -7.375,20.96875 -1.9375,5.15625 0,0.0312 -2.0625,5.09375 0,0.0312 -0.875,2 1.84375,0.8125 0.875,-2.0625 2.09375,-5.15625 0,-0.0312 1.9375,-5.1875 0.90625,-2.53125 -1.875,-0.6875 z m -8.71875,20.3125 -0.0312,0.0312 -1.3125,2.4375 -0.0312,0.0312 -1.40625,2.4375 0.0312,0 -1.5,2.40625 -0.0312,0.0312 -1.5625,2.375 -0.0312,0.0312 -1.65625,2.34375 0,0.0312 -0.375,0.4375 1.59375,1.21875 0.375,-0.5 0.0312,0 1.6875,-2.40625 0.0312,-0.0312 1.59375,-2.4375 0.0312,0 1.5,-2.46875 0,-0.0312 1.4375,-2.46875 0.0312,0 1.34375,-2.5 0,-0.0312 0.46875,-0.84375 -1.78125,-0.9375 z m -13.1875,19.0625 0,0.0312 -2.09375,2.25 -0.0312,0.0312 -2.21875,2.1875 -0.0312,0.0312 -2.34375,2.1875 -2.5,2.1875 0,-0.0312 -2.03125,1.625 1.25,1.5625 2.0625,-1.625 0,-0.0312 2.53125,-2.1875 0.0312,0 0,-0.0312 2.40625,-2.21875 0.0312,-0.0312 2.25,-2.25 0.0312,-0.0312 2.125,-2.28125 0.0312,0 0,-0.0312 0.28125,-0.34375 -1.5,-1.3125 z m -20.71875,17.1875 -0.0312,0 -3.25,1.96875 -3.4375,1.9375 -0.0312,0 -3.59375,1.875 -0.0312,0.0312 -0.25,0.125 0.875,1.78125 0.28125,-0.125 3.6875,-1.90625 0,-0.0312 3.5,-1.9375 0,-0.0312 0.0312,0 3.28125,-2 0.0312,0 3.125,-2.03125 -1.09375,-1.6875 z m -18.1875,9.4375 -0.0312,0.0312 -4.15625,1.71875 0,0.0312 -0.0312,0 -4.40625,1.6875 -4.625,1.65625 -1.25,0.40625 0.625,1.90625 1.28125,-0.40625 4.65625,-1.6875 0.0312,0 4.4375,-1.71875 4.25,-1.78125 0.0312,0 0.34375,-0.15625 -0.8125,-1.84375 z m -23.125,8.28125 -0.0312,0 -5.28125,1.5 -5.53125,1.4375 -3.53125,0.84375 0.46875,1.9375 3.53125,-0.84375 0.0312,0 5.53125,-1.4375 0.0312,0 5.3125,-1.5 0,-0.0312 0.0312,0 1.03125,-0.3125 -0.5625,-1.90625 z m -22.59375,5.625 -0.0312,0 -6.25,1.28125 -6.53125,1.1875 -2.4375,0.40625 0.34375,1.96875 2.4375,-0.40625 6.5625,-1.21875 6.28125,-1.25 0.0312,0 0.46875,-0.0937 -0.4375,-1.9688 z m -26.65625,4.65625 -7.3125,1 -0.0312,0 -4.9375,0.625 0.21875,1.96875 4.96875,-0.59375 0.0312,0 7.34375,-1 3.5625,-0.5625 -0.3125,-1.96875 z m -22.84375,2.8125 -8.1875,0.78125 -0.0312,0 -5.0625,0.4375 0.15625,2 5.09375,-0.4375 8.21875,-0.8125 2.65625,-0.28125 -0.21875,-1.96875 z m -25.5,2.15625 -0.0312,0 -9.09375,0.5625 -0.0312,0 -2.53125,0.125 0.0937,2 2.5625,-0.125 9.15625,-0.5625 0,-0.0312 4.28125,-0.3125 -0.15625,-1.96875 z m -28.34375,1.46875 -7.3125,0.25 0.0625,1.96875 7.3125,-0.21875 0.0312,0 8.65625,-0.375 -0.0937,-2 z m -20.5,0.5625 -0.0312,0 -10.75,0.1875 0.0312,2 10.78125,-0.1875 5.21875,-0.125 -0.0625,-2 z"
       id="path4226"
       style="font-size:medium;font-style:normal;font-variant:normal;font-weight:normal;font-stretch:normal;text-indent:0;text-align:start;text-decoration:none;line-height:normal;letter-spacing:normal;word-spacing:normal;text-transform:none;direction:ltr;block-progression:tb;writing-mode:lr-tb;text-anchor:start;color:#ffffff;fill:#0000e8;fill-opacity:1;stroke:none;stroke-width:2;marker:none;visibility:visible;display:inline;overflow:visible;enable-background:accumulate;font-family:Bitstream Vera Sans;-inkscape-font-specification:Bitstream Vera Sans" />
    <path
       d="m 48.029018,808.82476 -2.0625,2.1875 201.437502,188.5625 2.03125,-2.1875 -201.406252,-188.5625 z"
       id="path4228"
       style="font-size:medium;font-style:normal;font-variant:normal;font-weight:normal;font-stretch:normal;text-indent:0;text-align:start;text-decoration:none;line-height:normal;letter-spacing:normal;word-spacing:normal;text-transform:none;direction:ltr;block-progression:tb;writing-mode:lr-tb;text-anchor:start;color:#ffffff;fill:#fa0000;fill-opacity:1;stroke:none;stroke-width:3;marker:none;visibility:visible;display:inline;overflow:visible;enable-background:accumulate;font-family:Bitstream Vera Sans;-inkscape-font-specification:Bitstream Vera Sans" />
    <path
       d="m 484.06027,843.57476 c -4.4361,37.03548 -18.89629,63.0252 -41.5,81.4375 -22.60371,18.4123 -53.44691,29.2291 -90.6875,35.40625 -74.48119,12.35429 -174.30979,6.125 -283.468752,6.125 l 0,3 c 109.044102,0 208.870252,6.29525 283.937502,-6.15625 37.53363,-6.22575 68.93157,-17.13858 92.125,-36.03125 23.19343,-18.89267 38.0854,-45.76761 42.59375,-83.40625 l -3,-0.375 z"
       id="path4226-1"
       style="font-size:medium;font-style:normal;font-variant:normal;font-weight:normal;font-stretch:normal;text-indent:0;text-align:start;text-decoration:none;line-height:normal;letter-spacing:normal;word-spacing:normal;text-transform:none;direction:ltr;block-progression:tb;writing-mode:lr-tb;text-anchor:start;color:#ffffff;fill:#ffffff;fill-opacity:1;stroke:none;stroke-width:3;marker:none;visibility:visible;display:inline;overflow:visible;enable-background:accumulate;font-family:Bitstream Vera Sans;-inkscape-font-specification:Bitstream Vera Sans" />
    <g
       transform="translate(-161.58259,471.82922)"
       id="flowRoot4260"
       style="font-size:32px;font-style:normal;font-weight:normal;fill:#ffffff;fill-opacity:1;stroke:none;font-family:DejaVu Sans;-inkscape-font-specification:DejaVu Sans">
      <path
         d="m 217.42187,375.75394 3.15625,0 0,23.32812 -3.15625,0 z"
         id="path4477" />
      <path
         d="m 240.84375,376.51956 0,3.07813 c -1.19793,-0.5729 -2.32814,-0.99998 -3.39063,-1.28125 -1.06251,-0.28123 -2.08855,-0.42186 -3.07812,-0.42188 -1.71876,2e-5 -3.04428,0.33336 -3.97656,1 -0.9323,0.66669 -1.39845,1.6146 -1.39844,2.84375 -1e-5,1.03127 0.30989,1.80991 0.92969,2.33594 0.61978,0.52606 1.79426,0.95054 3.52343,1.27344 l 1.90625,0.39062 c 2.35416,0.44793 4.09114,1.23699 5.21094,2.36719 1.11978,1.13022 1.67967,2.64324 1.67969,4.53906 -2e-5,2.26042 -0.75783,3.97396 -2.27344,5.14063 -1.51564,1.16666 -3.73699,1.75 -6.66406,1.75 -1.10418,0 -2.27865,-0.125 -3.52344,-0.375 -1.24479,-0.25 -2.53386,-0.61979 -3.86719,-1.10938 l 0,-3.25 c 1.28125,0.71876 2.53646,1.26042 3.76563,1.625 1.22916,0.36459 2.43749,0.54688 3.625,0.54688 1.80207,0 3.1927,-0.35417 4.17187,-1.0625 0.97916,-0.70833 1.46874,-1.71875 1.46875,-3.03125 -1e-5,-1.14583 -0.35157,-2.04166 -1.05468,-2.6875 -0.70314,-0.64583 -1.85679,-1.1302 -3.46094,-1.45313 l -1.92188,-0.375 c -2.35417,-0.46874 -4.05729,-1.20311 -5.10937,-2.20312 -1.05209,-0.99999 -1.57813,-2.39061 -1.57813,-4.17188 0,-2.06248 0.72656,-3.68748 2.17969,-4.875 1.45312,-1.18747 3.45572,-1.78122 6.00781,-1.78125 1.09374,3e-5 2.20833,0.099 3.34375,0.29688 1.13541,0.19794 2.29686,0.49481 3.48438,0.89062 z"
         id="path4479" />
    </g>
    <g
       transform="translate(-104.43973,390.40065)"
       id="flowRoot4284"
       style="font-size:32px;font-style:normal;font-weight:normal;fill:#ffffff;fill-opacity:1;stroke:none;font-family:DejaVu Sans;-inkscape-font-specification:DejaVu Sans">
      <path
         d="m 611.70312,420.03519 3.15625,0 0,20.67187 11.35938,0 0,2.65625 -14.51563,0 z"
         id="path4465" />
      <path
         d="m 629.51562,420.03519 4.70313,0 5.95312,15.875 5.98438,-15.875 4.70312,0 0,23.32812 -3.07812,0 0,-20.48437 -6.01563,16 -3.17187,0 -6.01563,-16 0,20.48437 -3.0625,0 z"
         id="path4467" />
      <path
         d="m 659.73437,420.03519 0,8.67187 -2.65625,0 0,-8.67187 z"
         id="path4469" />
    </g>
    <g
       transform="translate(-61.582589,424.68637)"
       id="flowRoot4292"
       style="font-size:32px;font-style:normal;font-weight:normal;fill:#ffffff;fill-opacity:1;stroke:none;font-family:DejaVu Sans;-inkscape-font-specification:DejaVu Sans">
      <path
         d="m 582.78125,604.34769 3.39062,0 6.46875,9.59375 6.42188,-9.59375 3.39062,0 -8.25,12.21875 0,11.10937 -3.17187,0 0,-11.10937 z"
         id="path4462" />
    </g>
    <g
       transform="translate(-67.296875,418.97208)"
       id="flowRoot4308"
       style="font-size:32px;font-style:normal;font-weight:normal;fill:#ffffff;fill-opacity:1;stroke:none;font-family:DejaVu Sans;-inkscape-font-specification:DejaVu Sans">
      <path
         d="m 67.296875,254.45706 2.875,0 0,17.5 -2.875,0 z m 0,-6.8125 2.875,0 0,3.64063 -2.875,0 z"
         id="path4459" />
    </g>
    <path
       d="m 108.09152,809.57476 13.15625,12.3125 2.0625,-2.21875 -13.15625,-12.28125 z m 26.28125,24.59375 13.15625,12.3125 2.0625,-2.1875 -13.15625,-12.3125 z m 26.28125,24.625 13.15625,12.28125 2.0625,-2.1875 -13.15625,-12.3125 z m 26.28125,24.59375 13.15625,12.28125 2.0625,-2.1875 -13.15625,-12.28125 z m 26.28125,24.59375 13.15625,12.3125 2.0625,-2.1875 -13.15625,-12.3125 z m 26.28125,24.59375 13.15625,12.3125 2.0625,-2.1875 -13.15625,-12.3125 z m 26.28125,24.625 13.15625,12.28125 2.03125,-2.1875 -13.125,-12.28125 z m 26.28125,24.59375 13.15625,12.3125 2.03125,-2.1875 -13.125,-12.3125 z"
       id="path4228-7"
       style="font-size:medium;font-style:normal;font-variant:normal;font-weight:normal;font-stretch:normal;text-indent:0;text-align:start;text-decoration:none;line-height:normal;letter-spacing:normal;word-spacing:normal;text-transform:none;direction:ltr;block-progression:tb;writing-mode:lr-tb;text-anchor:start;color:#ffffff;fill:#fa0000;fill-opacity:1;stroke:none;stroke-width:3;marker:none;visibility:visible;display:inline;overflow:visible;enable-background:accumulate;font-family:Bitstream Vera Sans;-inkscape-font-specification:Bitstream Vera Sans" />
    <g
       transform="translate(-78.561384,419.61492)"
       id="flowRoot4260-4"
       style="font-size:32px;font-style:normal;font-weight:normal;fill:#ffffff;fill-opacity:1;stroke:none;font-family:DejaVu Sans;-inkscape-font-specification:DejaVu Sans">
      <path
         d="m 217.42187,375.75394 3.15625,0 0,23.32812 -3.15625,0 z"
         id="path4452" />
      <path
         d="m 240.84375,376.51956 0,3.07813 c -1.19793,-0.5729 -2.32814,-0.99998 -3.39063,-1.28125 -1.06251,-0.28123 -2.08855,-0.42186 -3.07812,-0.42188 -1.71876,2e-5 -3.04428,0.33336 -3.97656,1 -0.9323,0.66669 -1.39845,1.6146 -1.39844,2.84375 -1e-5,1.03127 0.30989,1.80991 0.92969,2.33594 0.61978,0.52606 1.79426,0.95054 3.52343,1.27344 l 1.90625,0.39062 c 2.35416,0.44793 4.09114,1.23699 5.21094,2.36719 1.11978,1.13022 1.67967,2.64324 1.67969,4.53906 -2e-5,2.26042 -0.75783,3.97396 -2.27344,5.14063 -1.51564,1.16666 -3.73699,1.75 -6.66406,1.75 -1.10418,0 -2.27865,-0.125 -3.52344,-0.375 -1.24479,-0.25 -2.53386,-0.61979 -3.86719,-1.10938 l 0,-3.25 c 1.28125,0.71876 2.53646,1.26042 3.76563,1.625 1.22916,0.36459 2.43749,0.54688 3.625,0.54688 1.80207,0 3.1927,-0.35417 4.17187,-1.0625 0.97916,-0.70833 1.46874,-1.71875 1.46875,-3.03125 -1e-5,-1.14583 -0.35157,-2.04166 -1.05468,-2.6875 -0.70314,-0.64583 -1.85679,-1.1302 -3.46094,-1.45313 l -1.92188,-0.375 c -2.35417,-0.46874 -4.05729,-1.20311 -5.10937,-2.20312 -1.05209,-0.99999 -1.57813,-2.39061 -1.57813,-4.17188 0,-2.06248 0.72656,-3.68748 2.17969,-4.875 1.45312,-1.18747 3.45572,-1.78122 6.00781,-1.78125 1.09374,3e-5 2.20833,0.099 3.34375,0.29688 1.13541,0.19794 2.29686,0.49481 3.48438,0.89062 z"
         id="path4454" />
      <path
         d="m 249.76562,375.75394 0,8.67187 -2.65625,0 0,-8.67187 z m 5.90625,0 0,8.67187 -2.65625,0 0,-8.67187 z"
         id="path4456" />
    </g>
    <path
       d="m 216.24777,974.41851 1.5,0 0,-4.5 -1.5,0 z m 0,6 1.5,0 0,-4.5 -1.5,0 z m 0,6 1.5,0 0,-4.5 -1.5,0 z m 0,6 1.5,0 0,-4.5 -1.5,0 z m 0,6 1.5,0 0,-4.5 -1.5,0 z m 0,5.78129 1.5,0 0,-4.28129 -1.5,0 z"
       id="path4369"
       style="font-size:medium;font-style:normal;font-variant:normal;font-weight:normal;font-stretch:normal;text-indent:0;text-align:start;text-decoration:none;line-height:normal;letter-spacing:normal;word-spacing:normal;text-transform:none;direction:ltr;block-progression:tb;writing-mode:lr-tb;text-anchor:start;color:#ffffff;fill:#ffffff;fill-opacity:1;stroke:none;stroke-width:1.5;marker:none;visibility:visible;display:inline;overflow:visible;enable-background:accumulate;font-family:Bitstream Vera Sans;-inkscape-font-specification:Bitstream Vera Sans" />
    <path
       d="m 279.09152,974.41851 1.5,0 0,-4.5 -1.5,0 z m 0,6 1.5,0 0,-4.5 -1.5,0 z m 0,6 1.5,0 0,-4.5 -1.5,0 z m 0,6 1.5,0 0,-4.5 -1.5,0 z m 0,6 1.5,0 0,-4.5 -1.5,0 z m 0,5.78129 1.5,0 0,-4.28129 -1.5,0 z"
       id="path4369-8"
       style="font-size:medium;font-style:normal;font-variant:normal;font-weight:normal;font-stretch:normal;text-indent:0;text-align:start;text-decoration:none;line-height:normal;letter-spacing:normal;word-spacing:normal;text-transform:none;direction:ltr;block-progression:tb;writing-mode:lr-tb;text-anchor:start;color:#ffffff;fill:#ffffff;fill-opacity:1;stroke:none;stroke-width:1.5;marker:none;visibility:visible;display:inline;overflow:visible;enable-background:accumulate;font-family:Bitstream Vera Sans;-inkscape-font-specification:Bitstream Vera Sans" />
    <g
       transform="translate(-77.296875,434.68637)"
       id="flowRoot4393"
       style="font-size:24px;font-style:normal;font-weight:normal;fill:#ffffff;fill-opacity:1;stroke:none;font-family:DejaVu Sans;-inkscape-font-specification:DejaVu Sans">
      <path
         d="m 284.23437,585.26077 2.54297,0 4.85157,7.19531 4.8164,-7.19531 2.54297,0 -6.1875,9.16406 0,8.33203 -2.37891,0 0,-8.33203 z"
         id="path4449" />
    </g>
    <g
       transform="translate(-7.479631,434.46831)"
       id="flowRoot4393-8"
       style="font-size:24px;font-style:normal;font-weight:normal;fill:#ffffff;fill-opacity:1;stroke:none;font-family:DejaVu Sans;-inkscape-font-specification:DejaVu Sans">
      <path
         d="m 284.23437,585.26077 2.54297,0 4.85157,7.19531 4.8164,-7.19531 2.54297,0 -6.1875,9.16406 0,8.33203 -2.37891,0 0,-8.33203 z"
         id="path4444" />
      <path
         d="m 303.25391,585.26077 0,6.5039 -1.99219,0 0,-6.5039 z m 4.42968,0 0,6.5039 -1.99218,0 0,-6.5039 z"
         id="path4446" />
    </g>
    <g
       transform="translate(5.560268,326.11494)"
       id="flowRoot4432"
       style="font-size:16px;font-style:normal;font-weight:normal;fill:#ffffff;fill-opacity:1;stroke:none;font-family:DejaVu Sans;-inkscape-font-specification:DejaVu Sans">
      <path
         d="m 226.08594,695.28322 -2.80469,1.51562 2.80469,1.52344 -0.45313,0.76563 -2.625,-1.58594 0,2.94531 -0.89062,0 0,-2.94531 -2.625,1.58594 -0.45313,-0.76563 2.80469,-1.52344 -2.80469,-1.51562 0.45313,-0.77344 2.625,1.58594 0,-2.94531 0.89062,0 0,2.94531 2.625,-1.58594 z"
         id="path4441" />
    </g>
    <g
       transform="translate(0,641.53537)"
       id="flowRoot3079"
       style="font-size:32px;font-style:normal;font-weight:normal;fill:#ffffff;fill-opacity:1;stroke:none;font-family:DejaVu Sans;-inkscape-font-specification:DejaVu Sans">
      <path
         d="m 407.20312,167.34769 3.15625,0 0,20.67187 11.35938,0 0,2.65625 -14.51563,0 z"
         id="path3088" />
      <path
         d="m 425.01562,167.34769 4.70313,0 5.95312,15.875 5.98438,-15.875 4.70312,0 0,23.32812 -3.07812,0 0,-20.48437 -6.01563,16 -3.17187,0 -6.01563,-16 0,20.48437 -3.0625,0 z"
         id="path3090" />
    </g>
  </g>
</svg>
